<?xml version="1.0" encoding="UTF-8" standalone="no"?>
<!-- Created with Inkscape (http://www.inkscape.org/) -->

<svg
   xmlns:dc="http://purl.org/dc/elements/1.1/"
   xmlns:cc="http://creativecommons.org/ns#"
   xmlns:rdf="http://www.w3.org/1999/02/22-rdf-syntax-ns#"
   xmlns:svg="http://www.w3.org/2000/svg"
   xmlns="http://www.w3.org/2000/svg"
   xmlns:sodipodi="http://sodipodi.sourceforge.net/DTD/sodipodi-0.dtd"
   xmlns:inkscape="http://www.inkscape.org/namespaces/inkscape"
   width="85mm"
   height="85mm"
   viewBox="0 0 85 85"
   version="1.1"
   id="svg140"
   inkscape:version="0.92.5 (2060ec1f9f, 2020-04-08)"
   sodipodi:docname="Logo.svg">
  <defs
     id="defs134" />
  <sodipodi:namedview
     id="base"
     pagecolor="#ffffff"
     bordercolor="#666666"
     borderopacity="1.0"
     inkscape:pageopacity="0.0"
     inkscape:pageshadow="2"
     inkscape:zoom="0.49497475"
     inkscape:cx="-102.31256"
     inkscape:cy="360.83261"
     inkscape:document-units="mm"
     inkscape:current-layer="layer1"
     showgrid="false"
     inkscape:window-width="3368"
     inkscape:window-height="1403"
     inkscape:window-x="72"
     inkscape:window-y="0"
     inkscape:window-maximized="1" />
  <metadata
     id="metadata137">
    <rdf:RDF>
      <cc:Work
         rdf:about="">
        <dc:format>image/svg+xml</dc:format>
        <dc:type
           rdf:resource="http://purl.org/dc/dcmitype/StillImage" />
        <dc:title></dc:title>
      </cc:Work>
    </rdf:RDF>
  </metadata>
  <g
     inkscape:label="Layer 1"
     inkscape:groupmode="layer"
     id="layer1"
     transform="translate(0,-212)">
    <path
       style="stroke-width:0.99999946"
       d="m 37.870845,212.56793 c -9.115996,0 -17.214991,5.87 -20.037989,14.53399 -5.860605,1.20807 -10.918627,4.87819 -13.884992,10.07499 -4.57199805,7.902 -3.52799806,17.836 2.596998,24.60899 -1.890998,5.673 -1.241999,11.881 1.777999,17.01799 4.543998,7.93 13.686993,11.994 22.633988,10.10299 3.962903,4.47253 9.659414,7.02257 15.634991,6.999 9.115997,0 17.214987,-5.86999 20.037987,-14.53399 5.86999,-1.214 10.92199,-4.883 13.85699,-10.07499 4.6,-7.902 3.556,-17.83599 -2.568,-24.60899 v -0.028 c 1.88983,-5.67291 1.24185,-11.88519 -1.778,-17.04599 -4.54499,-7.902 -13.68899,-11.96699 -22.60698,-10.07599 -3.980926,-4.46056 -9.684408,-6.9986 -15.662992,-6.97 z m 0,5.419 -0.028,0.028 c 3.668998,0 7.196994,1.27 10.018995,3.61299 -0.113001,0.056 -0.339,0.197 -0.508,0.282 l -16.593992,9.567 c -0.847,0.48 -1.355,1.383 -1.355,2.371 v 22.46398 l -7.139995,-4.11999 v -18.56999 c -0.0033,-8.62519 6.980817,-15.62275 15.605992,-15.63599 z m 19.989992,6.53999 c 5.5974,-0.0108 10.77267,2.97439 13.56599,7.825 1.80599,3.161 2.48299,6.85799 1.862,10.44199 -0.11301,-0.085 -0.338,-0.197 -0.48,-0.282 l -16.59399,-9.59599 c -0.84914,-0.48022 -1.88786,-0.48022 -2.737,0 l -19.44499,11.23199 v -8.24099 l 16.057991,-9.285 c 2.361019,-1.36882 5.040879,-2.09173 7.769999,-2.096 z m -41.04298,8.53 v 19.72699 c 0,0.988 0.507999,1.86299 1.354999,2.37099 l 19.415989,11.204 -7.168997,4.148 -16.02999,-9.257 C 6.930741,256.92704 4.380423,247.3808 8.689861,239.91391 c 1.825755,-3.16467 4.701207,-5.59084 8.127996,-6.85799 z m 37.19598,4.88199 16.05799,9.257 c 7.47899,4.318 10.01799,13.85699 5.69999,21.33599 l 0.028,0.028 c -1.834,3.161 -4.71299,5.58799 -8.12799,6.82999 V 255.6619 c 0,-0.988 -0.508,-1.89099 -1.355,-2.36999 l -19.44399,-11.233 z m -11.796996,6.802 8.184997,4.741 v 9.45399 l -8.184997,4.741 -8.183994,-4.741 v -9.45399 z m 12.868996,7.451 7.13999,4.11999 v 18.54199 c 0,8.636 -6.99899,15.63499 -15.605989,15.63499 v -0.028 c -3.640997,0 -7.196994,-1.27 -9.990992,-3.612 0.112999,-0.056 0.366999,-0.198 0.508,-0.283 l 16.593991,-9.567 c 0.847,-0.48 1.383,-1.383 1.354,-2.371 z m -4.656999,12.13499 v 8.24 l -16.057991,9.25699 c -7.478996,4.29 -17.017991,1.75 -21.335988,-5.701 h 0.028 C 11.22886,272.9899 10.57886,269.2649 11.19986,265.6809 c 0.113,0.085 0.339,0.197 0.48,0.282 l 16.59399,9.59599 c 0.84914,0.48022 1.887857,0.48022 2.736998,0 z"
       id="path58"
       inkscape:connector-curvature="0"
       sodipodi:nodetypes="cccccccccccccccccccscccccccccccccccccsccccccccccccsccccccccccccsccccccccccccccccc" />
  </g>
</svg>
